# xmcd
#
# Track frame offsets:
#	150
#	20030
#	37300
#	53337
#	67070
#	82100
#	92787
#	107765
#	119660
#	134037
#	167780
#	183587
#	207100
#	221365
#
# Disc length: 3170 seconds
#
# Revision: 0
# Processed by: cddbd v1.5.2PL0 Copyright (c) Steve Scherf et al.
# Submitted via: dBpowerAMP V4.0
#
DISCID=d70c600e
DTITLE=Brothers In Crime - The Highlights Of The Blues Brothers
DYEAR=1900
DGENRE=Blues
TTITLE0=She Caught The Katy
TTITLE1=Peter Gunn Theme
TTITLE2=Gimme Some Lovin'
TTITLE3=Shake Your Tail Feather
TTITLE4=Everybody Needs Somebody To Love
TTITLE5=The Old Landmark
TTITLE6=Think
TTITLE7=Theme From "Rawhide"
TTITLE8=Minnie The Moocher
TTITLE9=Sweet Home Chicago
TTITLE10=Jailhouse Rock
TTITLE11=Shotgun Blues
TTITLE12=Soul Man
TTITLE13=Hey Bartender
EXTD=
EXTT0=
EXTT1=
EXTT2=
EXTT3=
EXTT4=
EXTT5=
EXTT6=
EXTT7=
EXTT8=
EXTT9=
EXTT10=
EXTT11=
EXTT12=
EXTT13=
PLAYORDER=
